<?xml version="1.0" encoding="utf-8"?>
<!-- Generator: Adobe Illustrator 21.1.0, SVG Export Plug-In . SVG Version: 6.00 Build 0)  -->
<svg version="1.1" xmlns="http://www.w3.org/2000/svg" xmlns:xlink="http://www.w3.org/1999/xlink" x="0px" y="0px"
	 viewBox="0 0 16 16" style="enable-background:new 0 0 16 16;" xml:space="preserve">
<style type="text/css">
	.st0{fill:#404040;}
	.st1{fill:#FFFFFF;}
	.st2{fill:#808080;}
</style>
<g id="Layer_2">
</g>
<g id="Layer_1">
	<rect x="2.5" y="3" class="st0" width="11" height="2"/>
	<rect x="2.5" y="7" class="st0" width="11" height="2"/>
	<rect x="2.5" y="11" class="st0" width="11" height="2"/>
	<g>
		<path class="st1" d="M5,14.433c-0.239,0-0.433-0.193-0.433-0.433V2c0-0.239,0.194-0.433,0.433-0.433h6
			c0.239,0,0.433,0.194,0.433,0.433v12c0,0.239-0.193,0.433-0.433,0.433H5z"/>
		<path class="st0" d="M11,2v12H5V2H11 M11,1.134H5C4.522,1.134,4.134,1.522,4.134,2v12c0,0.478,0.388,0.866,0.866,0.866h6
			c0.478,0,0.866-0.388,0.866-0.866V2C11.866,1.522,11.478,1.134,11,1.134L11,1.134z"/>
	</g>
	<circle class="st2" cx="8" cy="5" r="1"/>
	<circle class="st2" cx="8" cy="11" r="1"/>
</g>
</svg>
