<?xml version="1.0" encoding="utf-8"?>
<!-- Generator: Adobe Illustrator 21.1.0, SVG Export Plug-In . SVG Version: 6.00 Build 0)  -->
<svg version="1.1" xmlns="http://www.w3.org/2000/svg" xmlns:xlink="http://www.w3.org/1999/xlink" x="0px" y="0px"
	 viewBox="0 0 16 16" style="enable-background:new 0 0 16 16;" xml:space="preserve">
<style type="text/css">
	.st0{fill:#FFFFFF;}
	.st1{fill:#808080;}
	.st2{fill:none;stroke:#404040;stroke-linecap:round;stroke-miterlimit:10;}
	.st3{fill:#404040;}
</style>
<g id="Layer_2_1_">
</g>
<g id="Layer_1">
	<g id="Layer_2">
	</g>
	<g>
		<path class="st0" d="M5.228,11.139c0.04,0.057,0.076,0.101,0.105,0.136c0.028-0.032,0.061-0.073,0.097-0.124l0.061-0.092
			C6.428,9.797,7.464,9.615,8,9.615c0.678,0,1.673,0.264,2.561,1.523c0.04,0.057,0.076,0.102,0.105,0.136
			c0.028-0.033,0.062-0.074,0.099-0.125l0.059-0.089c0.201-0.27,0.406-0.483,0.61-0.663V4c0-0.239-0.194-0.433-0.433-0.433H5
			C4.761,3.567,4.567,3.761,4.567,4v6.387C4.79,10.587,5.012,10.832,5.228,11.139z"/>
	</g>
	<circle class="st1" cx="8" cy="7" r="1"/>
	<path class="st2" d="M15.384,12.6c-0.255-0.151-0.496-0.391-0.716-0.701c-0.392-0.555-0.85-0.887-1.335-0.887
		c-0.463,0-0.898,0.29-1.278,0.799c-0.023,0.031-0.05,0.076-0.073,0.109c-0.388,0.54-0.839,0.86-1.316,0.86
		c-0.483,0-0.941-0.33-1.331-0.882C8.944,11.344,8.485,11.012,8,11.012c-0.463,0-0.898,0.29-1.278,0.799
		c-0.023,0.031-0.05,0.076-0.073,0.109c-0.388,0.54-0.839,0.86-1.316,0.86c-0.483,0-0.941-0.33-1.331-0.882
		c-0.392-0.555-0.85-0.887-1.335-0.887c-0.463,0-0.898,0.29-1.278,0.799c-0.023,0.031-0.05,0.076-0.073,0.109
		c-0.232,0.323-0.487,0.568-0.756,0.712"/>
	<path class="st3" d="M13.5,7V5h-1.634V4c0-0.478-0.388-0.866-0.866-0.866H5C4.522,3.134,4.134,3.522,4.134,4v1H2.5v2h1.634v2H2.5
		v0.623c0.058-0.004,0.117-0.008,0.167-0.008c0.453,0,1.048,0.131,1.657,0.591c0.028,0.021,0.056,0.042,0.084,0.064
		c0.088,0.071,0.177,0.147,0.265,0.233c0.029,0.028,0.057,0.061,0.086,0.091C4.839,10.678,4.92,10.762,5,10.86v-0.01V7V4h6v6.849
		v0.005c0.061-0.073,0.123-0.133,0.185-0.198c0.057-0.06,0.113-0.123,0.17-0.177c0.092-0.087,0.184-0.163,0.275-0.233
		c0.024-0.018,0.047-0.037,0.07-0.054c0.652-0.478,1.262-0.576,1.633-0.576c0.053,0,0.111,0.005,0.167,0.009V9h-1.634V7H13.5z"/>
</g>
</svg>
